<?xml version="1.0" encoding="UTF-8" standalone="no"?>
<!DOCTYPE svg PUBLIC "-//W3C//DTD SVG 1.1//EN"
 "http://www.w3.org/Graphics/SVG/1.1/DTD/svg11.dtd">
<!-- Generated by graphviz version 15.0.0 (20260523.1842)
 -->
<!-- Pages: 1 -->
<svg width="1310pt" height="404pt"
 viewBox="0.00 0.00 1310.00 404.00" xmlns="http://www.w3.org/2000/svg" xmlns:xlink="http://www.w3.org/1999/xlink">
<g id="graph0" class="graph" transform="scale(1 1) rotate(0) translate(4 400)">
<polygon fill="white" stroke="none" points="-4,4 -4,-400 1305.75,-400 1305.75,4 -4,4"/>
<!-- &#45;7163056776400047414 -->
<g id="node1" class="node">
<title>&#45;7163056776400047414</title>
<polygon fill="none" stroke="black" points="706.5,-396 595.25,-396 595.25,-360 706.5,-360 706.5,-396"/>
<text xml:space="preserve" text-anchor="middle" x="650.88" y="-370.62" font-family="Helvetica,sans-Serif" font-size="20.00">Sum(IsNa)</text>
</g>
<!-- &#45;6806519196325207906 -->
<g id="node2" class="node">
<title>&#45;6806519196325207906</title>
<polygon fill="none" stroke="black" points="707.62,-324 594.12,-324 594.12,-288 707.62,-288 707.62,-324"/>
<text xml:space="preserve" text-anchor="middle" x="650.88" y="-298.62" font-family="Helvetica,sans-Serif" font-size="20.00">IsNa(Drop)</text>
</g>
<!-- &#45;6806519196325207906&#45;&gt;&#45;7163056776400047414 -->
<g id="edge1" class="edge">
<title>&#45;6806519196325207906&#45;&gt;&#45;7163056776400047414</title>
<path fill="none" stroke="black" d="M650.88,-324.3C650.88,-331.59 650.88,-340.27 650.88,-348.46"/>
<polygon fill="black" stroke="black" points="647.38,-348.38 650.88,-358.38 654.38,-348.38 647.38,-348.38"/>
</g>
<!-- &#45;4615203598463179211 -->
<g id="node3" class="node">
<title>&#45;4615203598463179211</title>
<polygon fill="none" stroke="black" points="718.88,-252 582.88,-252 582.88,-216 718.88,-216 718.88,-252"/>
<text xml:space="preserve" text-anchor="middle" x="650.88" y="-226.62" font-family="Helvetica,sans-Serif" font-size="20.00">Drop(Concat)</text>
</g>
<!-- &#45;4615203598463179211&#45;&gt;&#45;6806519196325207906 -->
<g id="edge2" class="edge">
<title>&#45;4615203598463179211&#45;&gt;&#45;6806519196325207906</title>
<path fill="none" stroke="black" d="M650.88,-252.3C650.88,-259.59 650.88,-268.27 650.88,-276.46"/>
<polygon fill="black" stroke="black" points="647.38,-276.38 650.88,-286.38 654.38,-276.38 647.38,-276.38"/>
</g>
<!-- &#45;6387463251313523940 -->
<g id="node4" class="node">
<title>&#45;6387463251313523940</title>
<polygon fill="none" stroke="black" points="1016.25,-180 285.5,-180 285.5,-144 1016.25,-144 1016.25,-180"/>
<text xml:space="preserve" text-anchor="middle" x="650.88" y="-154.62" font-family="Helvetica,sans-Serif" font-size="20.00">Concat(ArrowStringConversion, ArrowStringConversion, ArrowStringConversion)</text>
</g>
<!-- &#45;6387463251313523940&#45;&gt;&#45;4615203598463179211 -->
<g id="edge3" class="edge">
<title>&#45;6387463251313523940&#45;&gt;&#45;4615203598463179211</title>
<path fill="none" stroke="black" d="M650.88,-180.3C650.88,-187.59 650.88,-196.27 650.88,-204.46"/>
<polygon fill="black" stroke="black" points="647.38,-204.38 650.88,-214.38 654.38,-204.38 647.38,-204.38"/>
</g>
<!-- 9162310458102189415 -->
<g id="node5" class="node">
<title>9162310458102189415</title>
<polygon fill="none" stroke="black" points="421.75,-108 0,-108 0,-72 421.75,-72 421.75,-108"/>
<text xml:space="preserve" text-anchor="middle" x="210.88" y="-82.62" font-family="Helvetica,sans-Serif" font-size="20.00">ArrowStringConversion(FromMapProjectable)</text>
</g>
<!-- 9162310458102189415&#45;&gt;&#45;6387463251313523940 -->
<g id="edge6" class="edge">
<title>9162310458102189415&#45;&gt;&#45;6387463251313523940</title>
<path fill="none" stroke="black" d="M320.77,-108.48C384.41,-118.61 464.62,-131.37 530.04,-141.78"/>
<polygon fill="black" stroke="black" points="529.32,-145.21 539.74,-143.32 530.42,-138.29 529.32,-145.21"/>
</g>
<!-- 70811431715210978 -->
<g id="node6" class="node">
<title>70811431715210978</title>
<polygon fill="none" stroke="black" points="311.88,-36 109.88,-36 109.88,0 311.88,0 311.88,-36"/>
<text xml:space="preserve" text-anchor="middle" x="210.88" y="-10.62" font-family="Helvetica,sans-Serif" font-size="20.00">FromMapProjectable</text>
</g>
<!-- 70811431715210978&#45;&gt;9162310458102189415 -->
<g id="edge7" class="edge">
<title>70811431715210978&#45;&gt;9162310458102189415</title>
<path fill="none" stroke="black" d="M210.88,-36.3C210.88,-43.59 210.88,-52.27 210.88,-60.46"/>
<polygon fill="black" stroke="black" points="207.38,-60.38 210.88,-70.38 214.38,-60.38 207.38,-60.38"/>
</g>
<!-- &#45;1962950776826312436 -->
<g id="node7" class="node">
<title>&#45;1962950776826312436</title>
<polygon fill="none" stroke="black" points="861.75,-108 440,-108 440,-72 861.75,-72 861.75,-108"/>
<text xml:space="preserve" text-anchor="middle" x="650.88" y="-82.62" font-family="Helvetica,sans-Serif" font-size="20.00">ArrowStringConversion(FromMapProjectable)</text>
</g>
<!-- &#45;1962950776826312436&#45;&gt;&#45;6387463251313523940 -->
<g id="edge5" class="edge">
<title>&#45;1962950776826312436&#45;&gt;&#45;6387463251313523940</title>
<path fill="none" stroke="black" d="M650.88,-108.3C650.88,-115.59 650.88,-124.27 650.88,-132.46"/>
<polygon fill="black" stroke="black" points="647.38,-132.38 650.88,-142.38 654.38,-132.38 647.38,-132.38"/>
</g>
<!-- &#45;1446673809247643482 -->
<g id="node8" class="node">
<title>&#45;1446673809247643482</title>
<polygon fill="none" stroke="black" points="751.88,-36 549.88,-36 549.88,0 751.88,0 751.88,-36"/>
<text xml:space="preserve" text-anchor="middle" x="650.88" y="-10.62" font-family="Helvetica,sans-Serif" font-size="20.00">FromMapProjectable</text>
</g>
<!-- &#45;1446673809247643482&#45;&gt;&#45;1962950776826312436 -->
<g id="edge8" class="edge">
<title>&#45;1446673809247643482&#45;&gt;&#45;1962950776826312436</title>
<path fill="none" stroke="black" d="M650.88,-36.3C650.88,-43.59 650.88,-52.27 650.88,-60.46"/>
<polygon fill="black" stroke="black" points="647.38,-60.38 650.88,-70.38 654.38,-60.38 647.38,-60.38"/>
</g>
<!-- 2732539482382166380 -->
<g id="node9" class="node">
<title>2732539482382166380</title>
<polygon fill="none" stroke="black" points="1301.75,-108 880,-108 880,-72 1301.75,-72 1301.75,-108"/>
<text xml:space="preserve" text-anchor="middle" x="1090.88" y="-82.62" font-family="Helvetica,sans-Serif" font-size="20.00">ArrowStringConversion(FromMapProjectable)</text>
</g>
<!-- 2732539482382166380&#45;&gt;&#45;6387463251313523940 -->
<g id="edge4" class="edge">
<title>2732539482382166380&#45;&gt;&#45;6387463251313523940</title>
<path fill="none" stroke="black" d="M980.98,-108.48C917.34,-118.61 837.13,-131.37 771.71,-141.78"/>
<polygon fill="black" stroke="black" points="771.33,-138.29 762.01,-143.32 772.43,-145.21 771.33,-138.29"/>
</g>
<!-- &#45;8493156656648793673 -->
<g id="node10" class="node">
<title>&#45;8493156656648793673</title>
<polygon fill="none" stroke="black" points="1191.88,-36 989.88,-36 989.88,0 1191.88,0 1191.88,-36"/>
<text xml:space="preserve" text-anchor="middle" x="1090.88" y="-10.62" font-family="Helvetica,sans-Serif" font-size="20.00">FromMapProjectable</text>
</g>
<!-- &#45;8493156656648793673&#45;&gt;2732539482382166380 -->
<g id="edge9" class="edge">
<title>&#45;8493156656648793673&#45;&gt;2732539482382166380</title>
<path fill="none" stroke="black" d="M1090.88,-36.3C1090.88,-43.59 1090.88,-52.27 1090.88,-60.46"/>
<polygon fill="black" stroke="black" points="1087.38,-60.38 1090.88,-70.38 1094.38,-60.38 1087.38,-60.38"/>
</g>
</g>
</svg>
